<?xml version="1.0" encoding="UTF-8"?>
<!DOCTYPE svg PUBLIC "-//W3C//DTD SVG 1.1//EN" "http://www.w3.org/Graphics/SVG/1.1/DTD/svg11.dtd">
<!-- Creator: CorelDRAW 2018 (64 Bit) -->
<svg xmlns="http://www.w3.org/2000/svg" xml:space="preserve" width="350px" height="75px" version="1.1" style="shape-rendering:geometricPrecision; text-rendering:geometricPrecision; image-rendering:optimizeQuality; fill-rule:evenodd; clip-rule:evenodd"
viewBox="0 0 350 75"
 xmlns:xlink="http://www.w3.org/1999/xlink">
 <defs>
  <style type="text/css">
   <![CDATA[
    .fil0 {fill:#EC268F;fill-rule:nonzero}
    .fil1 {fill:#FFF212;fill-rule:nonzero}
   ]]>
  </style>
 </defs>
 <g id="Camada_x0020_1">
  <metadata id="CorelCorpID_0Corel-Layer"/>
  <g id="_1903010072848">
   <g>
    <path class="fil0" d="M338.57 45.34l-7.94 0 0 -8.01c0,-1.41 -1.21,-2.61 -2.61,-2.61l-1.53 0c-1.47,0 -2.61,1.2 -2.61,2.61l0 8.01 -8.01 0c-1.4,0 -2.6,1.13 -2.6,2.6l0 1.54c0,1.4 1.2,2.6 2.6,2.6l8.01 0 0 7.95c0,1.47 1.14,2.67 2.61,2.67l1.53 0c1.4,0 2.61,-1.2 2.61,-2.67l0 -7.95 7.94 0c1.47,0 2.61,-1.2 2.61,-2.6l0 -1.54c0,-1.47 -1.14,-2.6 -2.61,-2.6z"/>
    <path class="fil1" d="M336.24 42.64l-7.94 0 0 -8.02c0,-1.4 -1.2,-2.6 -2.61,-2.6l-1.53 0c-1.47,0 -2.61,1.2 -2.61,2.6l0 8.02 -8.01 0c-1.4,0 -2.6,1.13 -2.6,2.6l0 1.54c0,1.4 1.2,2.6 2.6,2.6l8.01 0 0 7.95c0,1.46 1.14,2.67 2.61,2.67l1.53 0c1.41,0 2.61,-1.21 2.61,-2.67l0 -7.95 7.94 0c1.47,0 2.61,-1.2 2.61,-2.6l0 -1.54c0,-1.47 -1.14,-2.6 -2.61,-2.6z"/>
   </g>
   <path class="fil0" d="M36.81 44.56c-6.46,-2.55 -9.19,-4.17 -8.76,-6.47 0.42,-2.21 2.81,-2.8 5.19,-2.55 5.53,0.34 5.18,4.17 6.8,6.98 1.96,3.32 6.72,3.23 8.68,1.02 4.08,-4.85 -0.43,-13.87 -14.12,-14.63 -8.08,-0.43 -16.33,0.94 -18.89,8.51 -3.65,11.14 5.88,15.73 12,18.45 6.46,2.81 11.99,3.74 11.22,6.98 -0.59,2.63 -4.59,2.72 -7.14,2.37 -3.32,-0.5 -6.72,-0.93 -8.59,-6.63 -1.53,-4.59 -6.55,-4.93 -9.1,-2.21 -5.19,5.62 1.61,15.65 19.39,15.65 9.44,0 17.18,-2.97 19.05,-10.38 2.64,-10.54 -5.44,-12.92 -15.73,-17.09l0 0z"/>
   <path id="_1" class="fil0" d="M79.67 28.91c-14.2,0 -23.22,8.25 -23.22,21.52 0,13.27 9.02,21.6 23.22,21.6 14.12,0 23.14,-8.33 23.14,-21.6 0,-13.27 -9.02,-21.52 -23.14,-21.52zm0 35.04c-4.93,0 -7.4,-5.78 -7.4,-13.52 0,-7.74 2.47,-13.44 7.4,-13.44 4.85,0 7.32,5.7 7.32,13.44 0,7.74 -2.47,13.52 -7.32,13.52z"/>
   <path id="_2" class="fil0" d="M181.23 63.01c-1.53,-2.12 -1.62,-4.93 -1.62,-10.88 0,-4.17 0,-7.74 0,-9.19 0,-6.55 -2.97,-14.03 -14.11,-14.03 -6.39,0 -11.06,3.66 -14.04,6.97 -1.78,-3.91 -5.61,-6.97 -12.67,-6.97 -5.53,0 -9.7,2.64 -12.68,5.53 -0.16,-4.42 -2.63,-6.47 -7.31,-5.19 -0.94,0.26 -5.95,1.78 -8.59,2.63 -2.55,0.86 -3.83,1.96 -3.91,3.75 -0.17,1.53 0.51,2.64 2.72,5.7 1.53,2.12 1.62,4.93 1.62,10.8 0,5.95 -0.09,8.76 -1.62,10.88 -2.21,3.07 -2.89,4.17 -2.72,5.7 0.08,1.79 1.28,2.56 3.91,2.56 0.17,0 16.25,0 16.33,0 2.64,0 3.83,-0.77 4,-2.56 0.08,-1.53 -0.51,-2.63 -2.72,-5.7 -1.62,-2.12 -1.71,-4.93 -1.71,-10.88 0,-2.04 0,-4.08 0,-6.04 0,-5.19 2.22,-8.16 6.05,-8.16 6.12,0 5.18,7.48 5.18,13.35l0 0.85c0,5.95 -0.08,8.76 -1.61,10.88 -2.21,3.07 -2.9,4.17 -2.72,5.7 0.08,1.79 1.27,2.56 3.91,2.56 0.17,0 16.24,0 16.33,0 2.63,0 3.83,-0.77 3.99,-2.56 0.09,-1.53 -0.51,-2.63 -2.72,-5.7 -1.53,-2.12 -1.62,-4.93 -1.62,-10.88 0,-2.21 0,-4.34 0,-6.04 0,-5.19 2.13,-8.16 5.96,-8.16 6.13,0 5.19,7.48 5.19,13.35l0 0.85c0,5.95 -0.09,8.76 -1.62,10.88 -2.21,3.07 -2.8,4.17 -2.72,5.7 0.17,1.79 1.36,2.56 4,2.56 0.08,0 16.16,0 16.33,0 2.63,0 3.83,-0.77 3.91,-2.56 0.17,-1.53 -0.51,-2.63 -2.72,-5.7l0 0z"/>
   <path id="_3" class="fil0" d="M224.44 54.76c-2.81,0 -4.09,2.9 -5.28,5.11 -0.85,1.62 -2.64,3.4 -6.72,3.4l-7.23 0c6.81,-10.03 17.7,-26.03 18.55,-27.39 2.04,-3.06 1.19,-6.29 -2.81,-6.29 -3.32,0 -25.52,0 -28.07,0 -2.46,0 -3.57,0.85 -3.91,3.4 -0.51,3.07 -1.11,7.23 -1.53,10.21 -0.26,1.87 0.68,2.89 2.21,2.89 2.81,0 4.08,-2.89 5.27,-5.1 0.85,-1.62 2.64,-3.41 6.72,-3.41l4.85 0c-6.55,9.62 -16.84,24.76 -18.63,27.39 -2.21,3.23 -1.44,6.3 2.47,6.3 2.55,0 28.41,0 30.87,0 2.47,0 3.58,-0.86 3.92,-3.41 0.51,-3.06 1.1,-7.22 1.53,-10.2 0.25,-1.87 -0.68,-2.9 -2.21,-2.9z"/>
   <path id="_4" class="fil0" d="M251.74 63.01c-1.53,-2.12 -1.62,-4.93 -1.62,-10.88 0,-7.65 0,-15.14 0,-17.18 0,-4.77 -2.55,-7.06 -7.4,-5.7 -0.93,0.26 -5.95,1.78 -8.59,2.63 -2.55,0.86 -3.82,1.96 -3.91,3.75 -0.17,1.53 0.51,2.64 2.72,5.7 1.53,2.12 1.62,4.93 1.62,10.8 0,5.95 -0.09,8.76 -1.62,10.88 -2.21,3.07 -2.89,4.18 -2.72,5.7 0.09,1.79 1.28,2.56 3.91,2.56 0.18,0 16.25,0 16.42,0 2.55,0 3.74,-0.77 3.91,-2.56 0.09,-1.52 -0.51,-2.63 -2.72,-5.7l0 0zm-10.63 -37.76c5.36,0 9.69,-3.91 9.69,-8.84 0,-4.85 -4.33,-8.76 -9.69,-8.76 -5.28,0 -9.61,3.91 -9.61,8.76 0,4.93 4.33,8.84 9.61,8.84z"/>
   <path id="_5" class="fil0" d="M306 63.01c-1.53,-2.12 -1.61,-4.93 -1.61,-10.88 0,-4.17 0,-7.74 0,-9.19 0,-6.55 -3.83,-14.03 -14.97,-14.03 -5.36,0 -9.44,2.55 -12.34,5.44 -0.25,-4.33 -2.72,-6.38 -7.39,-5.1 -0.94,0.26 -5.96,1.78 -8.51,2.63 -2.64,0.86 -3.83,1.96 -4,3.75 -0.08,1.53 0.51,2.64 2.72,5.7 1.54,2.12 1.71,5.27 1.71,11.05 0,5.7 -0.17,8.51 -1.71,10.63 -2.21,3.07 -2.8,4.18 -2.72,5.7 0.17,1.79 1.36,2.56 4,2.56 0.08,0 16.16,0 16.33,0 2.64,0 3.83,-0.77 3.91,-2.56 0.17,-1.52 -0.51,-2.63 -2.72,-5.7 -1.53,-2.12 -1.62,-4.93 -1.62,-10.88 0,-2.04 0,-4.08 0,-6.04 0,-5.19 1.96,-8.16 5.79,-8.16 6.12,0 6.04,7.48 6.04,13.35l0 0.85c0,5.95 -0.09,8.76 -1.62,10.88 -2.21,3.07 -2.89,4.18 -2.81,5.7 0.18,1.79 1.36,2.56 4,2.56 0.17,0 16.16,0 16.33,0 2.64,0 3.83,-0.77 4,-2.56 0.08,-1.52 -0.6,-2.63 -2.81,-5.7l0 0z"/>
   <path class="fil1" d="M33.23 39.88c-6.47,-2.55 -9.19,-4.16 -8.76,-6.46 0.42,-2.21 2.8,-2.81 5.18,-2.55 5.53,0.34 5.19,4.16 6.81,6.97 1.95,3.32 6.72,3.23 8.67,1.02 4.08,-4.85 -0.42,-13.86 -14.11,-14.63 -8.09,-0.42 -16.34,0.94 -18.89,8.51 -3.66,11.14 5.87,15.73 11.99,18.45 6.47,2.81 12,3.75 11.23,6.98 -0.6,2.63 -4.59,2.72 -7.14,2.38 -3.32,-0.51 -6.72,-0.94 -8.59,-6.64 -1.53,-4.59 -6.55,-4.93 -9.1,-2.21 -5.19,5.62 1.61,15.65 19.39,15.65 9.44,0 17.18,-2.97 19.05,-10.37 2.64,-10.55 -5.44,-12.93 -15.73,-17.1z"/>
   <path id="_1_0" class="fil1" d="M76.09 24.23c-14.2,0 -23.22,8.25 -23.22,21.52 0,13.27 9.02,21.6 23.22,21.6 14.12,0 23.13,-8.33 23.13,-21.6 0,-13.27 -9.01,-21.52 -23.13,-21.52zm0 35.04c-4.93,0 -7.4,-5.78 -7.4,-13.52 0,-7.74 2.47,-13.44 7.4,-13.44 4.85,0 7.32,5.7 7.32,13.44 0,7.74 -2.47,13.52 -7.32,13.52z"/>
   <path id="_2_1" class="fil1" d="M177.65 58.34c-1.53,-2.13 -1.62,-4.94 -1.62,-10.89 0,-4.17 0,-7.74 0,-9.18 0,-6.55 -2.98,-14.04 -14.12,-14.04 -6.38,0 -11.05,3.66 -14.03,6.98 -1.79,-3.91 -5.62,-6.98 -12.68,-6.98 -5.52,0 -9.69,2.64 -12.67,5.53 -0.17,-4.42 -2.64,-6.46 -7.31,-5.19 -0.94,0.26 -5.96,1.79 -8.59,2.64 -2.56,0.85 -3.83,1.96 -3.92,3.74 -0.16,1.53 0.51,2.64 2.73,5.7 1.53,2.13 1.61,4.93 1.61,10.8 0,5.95 -0.08,8.76 -1.61,10.89 -2.22,3.06 -2.89,4.17 -2.73,5.7 0.09,1.78 1.28,2.55 3.92,2.55 0.17,0 16.24,0 16.33,0 2.63,0 3.82,-0.77 3.99,-2.55 0.09,-1.53 -0.51,-2.64 -2.72,-5.7 -1.61,-2.13 -1.7,-4.94 -1.7,-10.89 0,-2.04 0,-4.08 0,-6.04 0,-5.19 2.21,-8.16 6.04,-8.16 6.12,0 5.19,7.48 5.19,13.35l0 0.85c0,5.95 -0.08,8.76 -1.62,10.89 -2.21,3.06 -2.89,4.17 -2.72,5.7 0.09,1.78 1.28,2.55 3.91,2.55 0.17,0 16.25,0 16.33,0 2.64,0 3.83,-0.77 4,-2.55 0.09,-1.53 -0.51,-2.64 -2.72,-5.7 -1.53,-2.13 -1.62,-4.94 -1.62,-10.89 0,-2.21 0,-4.33 0,-6.04 0,-5.19 2.13,-8.16 5.96,-8.16 6.12,0 5.19,7.48 5.19,13.35l0 0.85c0,5.95 -0.09,8.76 -1.62,10.89 -2.21,3.06 -2.8,4.17 -2.72,5.7 0.17,1.78 1.36,2.55 3.99,2.55 0.09,0 16.17,0 16.34,0 2.63,0 3.82,-0.77 3.91,-2.55 0.17,-1.53 -0.51,-2.64 -2.72,-5.7l0 0z"/>
   <path id="_3_2" class="fil1" d="M220.85 50.09c-2.8,0 -4.08,2.89 -5.27,5.1 -0.85,1.62 -2.64,3.4 -6.72,3.4l-7.23 0c6.8,-10.04 17.69,-26.02 18.54,-27.38 2.05,-3.06 1.2,-6.3 -2.8,-6.3 -3.32,0 -25.52,0 -28.07,0 -2.47,0 -3.57,0.85 -3.91,3.4 -0.51,3.07 -1.11,7.23 -1.54,10.21 -0.25,1.87 0.69,2.89 2.21,2.89 2.81,0 4.09,-2.89 5.28,-5.1 0.85,-1.62 2.64,-3.4 6.72,-3.4l4.85 0c-6.55,9.61 -16.85,24.75 -18.63,27.38 -2.21,3.24 -1.44,6.3 2.47,6.3 2.55,0 28.41,0 30.87,0 2.47,0 3.57,-0.85 3.91,-3.4 0.51,-3.06 1.11,-7.23 1.54,-10.21 0.25,-1.87 -0.69,-2.89 -2.22,-2.89z"/>
   <path id="_4_3" class="fil1" d="M248.16 58.34c-1.54,-2.13 -1.62,-4.94 -1.62,-10.89 0,-7.66 0,-15.14 0,-17.18 0,-4.76 -2.55,-7.06 -7.4,-5.7 -0.94,0.26 -5.95,1.79 -8.59,2.64 -2.55,0.85 -3.83,1.96 -3.91,3.74 -0.17,1.53 0.51,2.64 2.72,5.7 1.53,2.13 1.62,4.93 1.62,10.8 0,5.95 -0.09,8.76 -1.62,10.89 -2.21,3.06 -2.89,4.17 -2.72,5.7 0.08,1.78 1.27,2.55 3.91,2.55 0.17,0 16.25,0 16.41,0 2.56,0 3.75,-0.77 3.92,-2.55 0.08,-1.53 -0.51,-2.64 -2.72,-5.7l0 0zm-10.64 -37.77c5.36,0 9.7,-3.91 9.7,-8.84 0,-4.85 -4.34,-8.76 -9.7,-8.76 -5.27,0 -9.61,3.91 -9.61,8.76 0,4.93 4.34,8.84 9.61,8.84z"/>
   <path id="_5_4" class="fil1" d="M302.42 58.34c-1.53,-2.13 -1.62,-4.94 -1.62,-10.89 0,-4.17 0,-7.74 0,-9.18 0,-6.55 -3.82,-14.04 -14.96,-14.04 -5.36,0 -9.45,2.55 -12.34,5.44 -0.25,-4.33 -2.72,-6.37 -7.4,-5.1 -0.93,0.26 -5.95,1.79 -8.5,2.64 -2.64,0.85 -3.83,1.96 -4,3.74 -0.09,1.53 0.51,2.64 2.72,5.7 1.53,2.13 1.7,5.27 1.7,11.05 0,5.7 -0.17,8.51 -1.7,10.64 -2.21,3.06 -2.81,4.17 -2.72,5.7 0.17,1.78 1.36,2.55 4,2.55 0.08,0 16.15,0 16.33,0 2.63,0 3.82,-0.77 3.91,-2.55 0.17,-1.53 -0.51,-2.64 -2.72,-5.7 -1.53,-2.13 -1.62,-4.94 -1.62,-10.89 0,-2.04 0,-4.08 0,-6.04 0,-5.19 1.96,-8.16 5.79,-8.16 6.12,0 6.03,7.48 6.03,13.35l0 0.85c0,5.95 -0.08,8.76 -1.61,10.89 -2.21,3.06 -2.9,4.17 -2.81,5.7 0.17,1.78 1.36,2.55 4,2.55 0.17,0 16.16,0 16.33,0 2.64,0 3.83,-0.77 4,-2.55 0.08,-1.53 -0.6,-2.64 -2.81,-5.7l0 0z"/>
  </g>
 </g>
</svg>
